<mxfile host="app.diagrams.net" modified="2023-05-09T10:50:36.349Z" agent="Mozilla/5.0 (Macintosh; Intel Mac OS X 10_15_7) AppleWebKit/537.36 (KHTML, like Gecko) Chrome/113.0.0.0 Safari/537.36" etag="iqA0LVF3wTKjSiMvELDJ" version="21.2.9" type="github">
  <diagram name="Page-1" id="kw44q1w99DU7r3MZzYWE">
    <mxGraphModel dx="2339" dy="965" grid="1" gridSize="10" guides="1" tooltips="1" connect="1" arrows="1" fold="1" page="1" pageScale="1" pageWidth="1100" pageHeight="850" math="0" shadow="0">
      <root>
        <mxCell id="0" />
        <mxCell id="1" parent="0" />
        <mxCell id="xICSueHKrAzOodFPaBsb-24" value="" style="endArrow=none;html=1;rounded=0;" edge="1" parent="1">
          <mxGeometry width="50" height="50" relative="1" as="geometry">
            <mxPoint x="810.94" y="533.75" as="sourcePoint" />
            <mxPoint x="809.06" y="288.25" as="targetPoint" />
          </mxGeometry>
        </mxCell>
        <mxCell id="xICSueHKrAzOodFPaBsb-23" value="" style="endArrow=none;html=1;rounded=0;" edge="1" parent="1">
          <mxGeometry width="50" height="50" relative="1" as="geometry">
            <mxPoint x="670.88" y="628" as="sourcePoint" />
            <mxPoint x="669.13" y="287" as="targetPoint" />
          </mxGeometry>
        </mxCell>
        <mxCell id="xICSueHKrAzOodFPaBsb-22" value="" style="endArrow=none;html=1;rounded=0;" edge="1" parent="1">
          <mxGeometry width="50" height="50" relative="1" as="geometry">
            <mxPoint x="509.88" y="675.5" as="sourcePoint" />
            <mxPoint x="508.13" y="334.5" as="targetPoint" />
          </mxGeometry>
        </mxCell>
        <mxCell id="xICSueHKrAzOodFPaBsb-7" value="" style="endArrow=none;html=1;rounded=0;" edge="1" parent="1">
          <mxGeometry width="50" height="50" relative="1" as="geometry">
            <mxPoint x="330" y="690" as="sourcePoint" />
            <mxPoint x="328.25" y="349" as="targetPoint" />
          </mxGeometry>
        </mxCell>
        <mxCell id="i93go3o4aL7z4DNY35Lh-1" value="Home Page" style="rounded=0;whiteSpace=wrap;html=1;fillColor=#f8cecc;strokeColor=#b85450;" parent="1" vertex="1">
          <mxGeometry x="360" y="120" width="120" height="60" as="geometry" />
        </mxCell>
        <mxCell id="i93go3o4aL7z4DNY35Lh-5" value="" style="endArrow=classic;html=1;rounded=0;" parent="1" edge="1">
          <mxGeometry width="50" height="50" relative="1" as="geometry">
            <mxPoint x="419.5" y="180" as="sourcePoint" />
            <mxPoint x="419.5" y="230" as="targetPoint" />
          </mxGeometry>
        </mxCell>
        <mxCell id="i93go3o4aL7z4DNY35Lh-9" value="" style="edgeStyle=segmentEdgeStyle;endArrow=classic;html=1;curved=0;rounded=0;endSize=8;startSize=8;fillColor=#0050ef;strokeColor=#001DBC;" parent="1" edge="1">
          <mxGeometry width="50" height="50" relative="1" as="geometry">
            <mxPoint x="420" y="230" as="sourcePoint" />
            <mxPoint x="160" y="290" as="targetPoint" />
            <Array as="points">
              <mxPoint x="160" y="230" />
              <mxPoint x="160" y="280" />
            </Array>
          </mxGeometry>
        </mxCell>
        <mxCell id="i93go3o4aL7z4DNY35Lh-10" value="" style="edgeStyle=segmentEdgeStyle;endArrow=classic;html=1;curved=0;rounded=0;endSize=8;startSize=8;fillColor=#0050ef;strokeColor=#001DBC;" parent="1" edge="1">
          <mxGeometry width="50" height="50" relative="1" as="geometry">
            <mxPoint x="420" y="230" as="sourcePoint" />
            <mxPoint x="670" y="290" as="targetPoint" />
          </mxGeometry>
        </mxCell>
        <mxCell id="i93go3o4aL7z4DNY35Lh-13" value="" style="endArrow=classic;html=1;rounded=0;fillColor=#0050ef;strokeColor=#001DBC;" parent="1" edge="1">
          <mxGeometry width="50" height="50" relative="1" as="geometry">
            <mxPoint x="330" y="230" as="sourcePoint" />
            <mxPoint x="330" y="290" as="targetPoint" />
          </mxGeometry>
        </mxCell>
        <mxCell id="i93go3o4aL7z4DNY35Lh-15" value="" style="endArrow=classic;html=1;rounded=0;fillColor=#0050ef;strokeColor=#001DBC;" parent="1" edge="1">
          <mxGeometry width="50" height="50" relative="1" as="geometry">
            <mxPoint x="502" y="232" as="sourcePoint" />
            <mxPoint x="502" y="292" as="targetPoint" />
          </mxGeometry>
        </mxCell>
        <mxCell id="i93go3o4aL7z4DNY35Lh-17" value="Attractions" style="rounded=0;whiteSpace=wrap;html=1;fillColor=#ffe6cc;strokeColor=#d79b00;" parent="1" vertex="1">
          <mxGeometry x="100" y="290" width="120" height="60" as="geometry" />
        </mxCell>
        <mxCell id="i93go3o4aL7z4DNY35Lh-18" value="Shopping" style="rounded=0;whiteSpace=wrap;html=1;fillColor=#ffe6cc;strokeColor=#d79b00;" parent="1" vertex="1">
          <mxGeometry x="268" y="290" width="120" height="60" as="geometry" />
        </mxCell>
        <mxCell id="i93go3o4aL7z4DNY35Lh-19" value="Accomodation" style="rounded=0;whiteSpace=wrap;html=1;fillColor=#ffe6cc;strokeColor=#d79b00;" parent="1" vertex="1">
          <mxGeometry x="450" y="290" width="120" height="60" as="geometry" />
        </mxCell>
        <mxCell id="i93go3o4aL7z4DNY35Lh-20" value="Luxury Products" style="rounded=0;whiteSpace=wrap;html=1;fillColor=#f5f5f5;strokeColor=#666666;fontColor=#333333;" parent="1" vertex="1">
          <mxGeometry x="268" y="380" width="120" height="60" as="geometry" />
        </mxCell>
        <mxCell id="i93go3o4aL7z4DNY35Lh-21" value="Bargains" style="rounded=0;whiteSpace=wrap;html=1;fillColor=#f5f5f5;strokeColor=#666666;fontColor=#333333;" parent="1" vertex="1">
          <mxGeometry x="269" y="473" width="120" height="60" as="geometry" />
        </mxCell>
        <mxCell id="i93go3o4aL7z4DNY35Lh-22" value="Markets" style="rounded=0;whiteSpace=wrap;html=1;fillColor=#f5f5f5;strokeColor=#666666;fontColor=#333333;" parent="1" vertex="1">
          <mxGeometry x="269" y="568" width="120" height="60" as="geometry" />
        </mxCell>
        <mxCell id="i93go3o4aL7z4DNY35Lh-23" value="" style="endArrow=none;html=1;rounded=0;" parent="1" edge="1" source="xICSueHKrAzOodFPaBsb-6">
          <mxGeometry width="50" height="50" relative="1" as="geometry">
            <mxPoint x="160" y="640" as="sourcePoint" />
            <mxPoint x="159.5" y="350" as="targetPoint" />
          </mxGeometry>
        </mxCell>
        <mxCell id="i93go3o4aL7z4DNY35Lh-30" value="Transport" style="rounded=0;whiteSpace=wrap;html=1;fillColor=#ffe6cc;strokeColor=#d79b00;" parent="1" vertex="1">
          <mxGeometry x="610" y="290" width="120" height="60" as="geometry" />
        </mxCell>
        <mxCell id="i93go3o4aL7z4DNY35Lh-31" value="Types" style="rounded=0;whiteSpace=wrap;html=1;fillColor=#f5f5f5;strokeColor=#666666;fontColor=#333333;" parent="1" vertex="1">
          <mxGeometry x="610" y="382" width="120" height="60" as="geometry" />
        </mxCell>
        <mxCell id="i93go3o4aL7z4DNY35Lh-32" value="Routes" style="rounded=0;whiteSpace=wrap;html=1;fillColor=#f5f5f5;strokeColor=#666666;fontColor=#333333;" parent="1" vertex="1">
          <mxGeometry x="610" y="475" width="120" height="60" as="geometry" />
        </mxCell>
        <mxCell id="xICSueHKrAzOodFPaBsb-1" value="Other Tips" style="rounded=0;whiteSpace=wrap;html=1;fillColor=#ffe6cc;strokeColor=#d79b00;" vertex="1" parent="1">
          <mxGeometry x="750" y="290" width="120" height="60" as="geometry" />
        </mxCell>
        <mxCell id="xICSueHKrAzOodFPaBsb-2" value="Contact Us" style="rounded=0;whiteSpace=wrap;html=1;fillColor=#dae8fc;strokeColor=#6c8ebf;" vertex="1" parent="1">
          <mxGeometry x="890" y="290" width="120" height="60" as="geometry" />
        </mxCell>
        <mxCell id="xICSueHKrAzOodFPaBsb-3" value="Privacy" style="rounded=0;whiteSpace=wrap;html=1;fillColor=#d5e8d4;strokeColor=#82b366;" vertex="1" parent="1">
          <mxGeometry x="-60" y="290" width="120" height="60" as="geometry" />
        </mxCell>
        <mxCell id="xICSueHKrAzOodFPaBsb-4" value="Palaces" style="rounded=0;whiteSpace=wrap;html=1;fillColor=#f5f5f5;strokeColor=#666666;fontColor=#333333;" vertex="1" parent="1">
          <mxGeometry x="100" y="381" width="120" height="60" as="geometry" />
        </mxCell>
        <mxCell id="xICSueHKrAzOodFPaBsb-5" value="Museums" style="rounded=0;whiteSpace=wrap;html=1;fillColor=#f5f5f5;strokeColor=#666666;fontColor=#333333;" vertex="1" parent="1">
          <mxGeometry x="101" y="474" width="120" height="60" as="geometry" />
        </mxCell>
        <mxCell id="xICSueHKrAzOodFPaBsb-6" value="Amusement Parks" style="rounded=0;whiteSpace=wrap;html=1;fillColor=#f5f5f5;strokeColor=#666666;fontColor=#333333;" vertex="1" parent="1">
          <mxGeometry x="101" y="569" width="120" height="60" as="geometry" />
        </mxCell>
        <mxCell id="xICSueHKrAzOodFPaBsb-10" value="Cultural Items" style="rounded=0;whiteSpace=wrap;html=1;fillColor=#f5f5f5;strokeColor=#666666;fontColor=#333333;" vertex="1" parent="1">
          <mxGeometry x="269" y="660" width="120" height="60" as="geometry" />
        </mxCell>
        <mxCell id="xICSueHKrAzOodFPaBsb-13" value="Luxury Hotels" style="rounded=0;whiteSpace=wrap;html=1;fillColor=#f5f5f5;strokeColor=#666666;fontColor=#333333;" vertex="1" parent="1">
          <mxGeometry x="449" y="380" width="120" height="60" as="geometry" />
        </mxCell>
        <mxCell id="xICSueHKrAzOodFPaBsb-14" value="Budget Hotels" style="rounded=0;whiteSpace=wrap;html=1;fillColor=#f5f5f5;strokeColor=#666666;fontColor=#333333;" vertex="1" parent="1">
          <mxGeometry x="450" y="473" width="120" height="60" as="geometry" />
        </mxCell>
        <mxCell id="xICSueHKrAzOodFPaBsb-15" value="Traditional Stays" style="rounded=0;whiteSpace=wrap;html=1;fillColor=#f5f5f5;strokeColor=#666666;fontColor=#333333;" vertex="1" parent="1">
          <mxGeometry x="450" y="568" width="120" height="60" as="geometry" />
        </mxCell>
        <mxCell id="xICSueHKrAzOodFPaBsb-16" value="Camping" style="rounded=0;whiteSpace=wrap;html=1;fillColor=#f5f5f5;strokeColor=#666666;fontColor=#333333;" vertex="1" parent="1">
          <mxGeometry x="450" y="660" width="120" height="60" as="geometry" />
        </mxCell>
        <mxCell id="xICSueHKrAzOodFPaBsb-17" value="Ticketing Options" style="rounded=0;whiteSpace=wrap;html=1;fillColor=#f5f5f5;strokeColor=#666666;fontColor=#333333;" vertex="1" parent="1">
          <mxGeometry x="610" y="568" width="120" height="60" as="geometry" />
        </mxCell>
        <mxCell id="xICSueHKrAzOodFPaBsb-18" value="Seasons" style="rounded=0;whiteSpace=wrap;html=1;fillColor=#f5f5f5;strokeColor=#666666;fontColor=#333333;" vertex="1" parent="1">
          <mxGeometry x="750" y="382" width="120" height="60" as="geometry" />
        </mxCell>
        <mxCell id="xICSueHKrAzOodFPaBsb-19" value="Travel Tips" style="rounded=0;whiteSpace=wrap;html=1;fillColor=#f5f5f5;strokeColor=#666666;fontColor=#333333;" vertex="1" parent="1">
          <mxGeometry x="750" y="475" width="120" height="60" as="geometry" />
        </mxCell>
        <mxCell id="xICSueHKrAzOodFPaBsb-25" value="" style="edgeStyle=segmentEdgeStyle;endArrow=classic;html=1;curved=0;rounded=0;endSize=8;startSize=8;fillColor=#0050ef;strokeColor=#001DBC;" edge="1" parent="1">
          <mxGeometry width="50" height="50" relative="1" as="geometry">
            <mxPoint x="560" y="230" as="sourcePoint" />
            <mxPoint x="810" y="290" as="targetPoint" />
          </mxGeometry>
        </mxCell>
        <mxCell id="xICSueHKrAzOodFPaBsb-26" value="" style="edgeStyle=segmentEdgeStyle;endArrow=classic;html=1;curved=0;rounded=0;endSize=8;startSize=8;fillColor=#0050ef;strokeColor=#001DBC;" edge="1" parent="1">
          <mxGeometry width="50" height="50" relative="1" as="geometry">
            <mxPoint x="700" y="230" as="sourcePoint" />
            <mxPoint x="950" y="290" as="targetPoint" />
          </mxGeometry>
        </mxCell>
        <mxCell id="xICSueHKrAzOodFPaBsb-27" value="" style="edgeStyle=segmentEdgeStyle;endArrow=classic;html=1;curved=0;rounded=0;endSize=8;startSize=8;fillColor=#0050ef;strokeColor=#001DBC;" edge="1" parent="1">
          <mxGeometry width="50" height="50" relative="1" as="geometry">
            <mxPoint x="260" y="230" as="sourcePoint" />
            <mxPoint y="290" as="targetPoint" />
            <Array as="points">
              <mxPoint y="230" />
              <mxPoint y="280" />
            </Array>
          </mxGeometry>
        </mxCell>
      </root>
    </mxGraphModel>
  </diagram>
</mxfile>
